{"asset":{"version":"2.0","generator":"Blockbench 5.0.3 glTF exporter"},"scenes":[{"nodes":[0,4,15],"name":"blockbench_export"}],"scene":0,"nodes":[{"name":"cylinder","mesh":0},{"rotation":[0,0,-0.3826834323650898,0.9238795325112867],"translation":[0,5.625,0],"name":"cylinder","mesh":1},{"rotation":[-0.44442824947250714,0.8423796865068367,-0.09165139387627688,0.2906544629486739],"translation":[0,4.6875,0],"name":"cylinder","mesh":2},{"rotation":[-0.23477960268032316,0.6787243192841168,0.23963257034661115,-0.6532901865225424],"translation":[-0.25,4.75,-0.5],"name":"cylinder","mesh":3},{"name":"branch","children":[1,2,3]},{"translation":[-0.3125,3.875,0],"name":"leafs","mesh":4},{"rotation":[-0.2453335836242223,-0.1345946129666929,0.4617731975623247,0.8417013941532406],"translation":[-1.1875,0.6875,-0.4375],"name":"leafs","mesh":5},{"translation":[-0.3125,2.125,0],"name":"leafs","mesh":6},{"translation":[-2.9375,1.5625,-1.375],"name":"leafs","mesh":7},{"translation":[2.5,1.3125,0],"name":"leafs","mesh":8},{"rotation":[0,0,-0.3214394653031616,0.9469301294951057],"translation":[2,2.5625,0.3125],"name":"leafs","mesh":9},{"translation":[0.9375,3.875,-0.4375],"name":"leafs","mesh":10},{"rotation":[-0.4548086470711029,0.3247234855874303,-0.21775820512786,0.8001781780058712],"translation":[-0.8125,2.125,-1.3125],"name":"leafs","mesh":11},{"translation":[-0.1875,1.3125,1.75],"name":"leafs","mesh":12},{"rotation":[0.19509032201612825,0,0,0.9807852804032304],"translation":[-0.3125,2.125,1.5],"name":"leafs","mesh":13},{"translation":[-0.375,7.5625,0],"name":"leaf_goup","children":[5,6,7,8,9,10,11,12,13,14]}],"bufferViews":[{"buffer":0,"byteOffset":0,"byteLength":1320,"target":34962,"byteStride":12},{"buffer":0,"byteOffset":1320,"byteLength":1320,"target":34962,"byteStride":12},{"buffer":0,"byteOffset":2640,"byteLength":880,"target":34962,"byteStride":8},{"buffer":0,"byteOffset":3520,"byteLength":300,"target":34963},{"buffer":0,"byteOffset":3820,"byteLength":1320,"target":34962,"byteStride":12},{"buffer":0,"byteOffset":5140,"byteLength":1320,"target":34962,"byteStride":12},{"buffer":0,"byteOffset":6460,"byteLength":880,"target":34962,"byteStride":8},{"buffer":0,"byteOffset":7340,"byteLength":300,"target":34963},{"buffer":0,"byteOffset":7640,"byteLength":1320,"target":34962,"byteStride":12},{"buffer":0,"byteOffset":8960,"byteLength":1320,"target":34962,"byteStride":12},{"buffer":0,"byteOffset":10280,"byteLength":880,"target":34962,"byteStride":8},{"buffer":0,"byteOffset":11160,"byteLength":300,"target":34963},{"buffer":0,"byteOffset":11460,"byteLength":1320,"target":34962,"byteStride":12},{"buffer":0,"byteOffset":12780,"byteLength":1320,"target":34962,"byteStride":12},{"buffer":0,"byteOffset":14100,"byteLength":880,"target":34962,"byteStride":8},{"buffer":0,"byteOffset":14980,"byteLength":300,"target":34963},{"buffer":0,"byteOffset":15280,"byteLength":5760,"target":34962,"byteStride":12},{"buffer":0,"byteOffset":21040,"byteLength":5760,"target":34962,"byteStride":12},{"buffer":0,"byteOffset":26800,"byteLength":3840,"target":34962,"byteStride":8},{"buffer":0,"byteOffset":30640,"byteLength":1344,"target":34963},{"buffer":0,"byteOffset":31984,"byteLength":5760,"target":34962,"byteStride":12},{"buffer":0,"byteOffset":37744,"byteLength":5760,"target":34962,"byteStride":12},{"buffer":0,"byteOffset":43504,"byteLength":3840,"target":34962,"byteStride":8},{"buffer":0,"byteOffset":47344,"byteLength":1344,"target":34963},{"buffer":0,"byteOffset":48688,"byteLength":5760,"target":34962,"byteStride":12},{"buffer":0,"byteOffset":54448,"byteLength":5760,"target":34962,"byteStride":12},{"buffer":0,"byteOffset":60208,"byteLength":3840,"target":34962,"byteStride":8},{"buffer":0,"byteOffset":64048,"byteLength":1344,"target":34963},{"buffer":0,"byteOffset":65392,"byteLength":5760,"target":34962,"byteStride":12},{"buffer":0,"byteOffset":71152,"byteLength":5760,"target":34962,"byteStride":12},{"buffer":0,"byteOffset":76912,"byteLength":3840,"target":34962,"byteStride":8},{"buffer":0,"byteOffset":80752,"byteLength":1344,"target":34963},{"buffer":0,"byteOffset":82096,"byteLength":5760,"target":34962,"byteStride":12},{"buffer":0,"byteOffset":87856,"byteLength":5760,"target":34962,"byteStride":12},{"buffer":0,"byteOffset":93616,"byteLength":3840,"target":34962,"byteStride":8},{"buffer":0,"byteOffset":97456,"byteLength":1344,"target":34963},{"buffer":0,"byteOffset":98800,"byteLength":5760,"target":34962,"byteStride":12},{"buffer":0,"byteOffset":104560,"byteLength":5760,"target":34962,"byteStride":12},{"buffer":0,"byteOffset":110320,"byteLength":3840,"target":34962,"byteStride":8},{"buffer":0,"byteOffset":114160,"byteLength":1344,"target":34963},{"buffer":0,"byteOffset":115504,"byteLength":5760,"target":34962,"byteStride":12},{"buffer":0,"byteOffset":121264,"byteLength":5760,"target":34962,"byteStride":12},{"buffer":0,"byteOffset":127024,"byteLength":3840,"target":34962,"byteStride":8},{"buffer":0,"byteOffset":130864,"byteLength":1344,"target":34963},{"buffer":0,"byteOffset":132208,"byteLength":5760,"target":34962,"byteStride":12},{"buffer":0,"byteOffset":137968,"byteLength":5760,"target":34962,"byteStride":12},{"buffer":0,"byteOffset":143728,"byteLength":3840,"target":34962,"byteStride":8},{"buffer":0,"byteOffset":147568,"byteLength":1344,"target":34963},{"buffer":0,"byteOffset":148912,"byteLength":5760,"target":34962,"byteStride":12},{"buffer":0,"byteOffset":154672,"byteLength":5760,"target":34962,"byteStride":12},{"buffer":0,"byteOffset":160432,"byteLength":3840,"target":34962,"byteStride":8},{"buffer":0,"byteOffset":164272,"byteLength":1344,"target":34963},{"buffer":0,"byteOffset":165616,"byteLength":5760,"target":34962,"byteStride":12},{"buffer":0,"byteOffset":171376,"byteLength":5760,"target":34962,"byteStride":12},{"buffer":0,"byteOffset":177136,"byteLength":3840,"target":34962,"byteStride":8},{"buffer":0,"byteOffset":180976,"byteLength":1344,"target":34963}],"buffers":[{"byteLength":182320,"uri":"data:application/octet-stream;base64,"}],"accessors":[{"bufferView":0,"componentType":5126,"count":110,"max":[0.9627852439880371,9.8125,0.875],"min":[-0.9627852439880371,0,-0.9930340051651001],"type":"VEC3"},{"bufferView":1,"componentType":5126,"count":110,"max":[0.9700259566307068,1,0.9997026920318604],"min":[-0.9805468916893005,-1,-0.8116018176078796],"type":"VEC3"},{"bufferView":2,"componentType":5126,"count":110,"max":[0.48790860176086426,0.7426930069923401],"min":[0.002403904451057315,0],"type":"VEC2"},{"bufferView":3,"componentType":5123,"count":150,"max":[109],"min":[0],"type":"SCALAR"},{"bufferView":4,"componentType":5126,"count":110,"max":[0.4002852439880371,4.175213813781738,0.3125],"min":[-0.980803370475769,0,-0.4305339753627777],"type":"VEC3"},{"bufferView":5,"componentType":5126,"count":110,"max":[0.9487935900688171,0.7464943528175354,1],"min":[-0.9998759031295776,-1,-0.8658685088157654],"type":"VEC3"},{"bufferView":6,"componentType":5126,"count":110,"max":[0.5,0.4479524493217468],"min":[0.0005135211395099759,0],"type":"VEC2"},{"bufferView":7,"componentType":5123,"count":150,"max":[109],"min":[0],"type":"SCALAR"},{"bufferView":8,"componentType":5126,"count":110,"max":[0.1815352588891983,3.7689638137817383,0.28125],"min":[-0.762053370475769,0.40625,-0.3992839753627777],"type":"VEC3"},{"bufferView":9,"componentType":5126,"count":110,"max":[0.9705143570899963,0.7061645984649658,1],"min":[-0.9999107122421265,-1,-0.8201603889465332],"type":"VEC3"},{"bufferView":10,"componentType":5126,"count":110,"max":[0.5,0.660608172416687],"min":[0,0.0015440583229064941],"type":"VEC2"},{"bufferView":11,"componentType":5123,"count":150,"max":[109],"min":[0],"type":"SCALAR"},{"bufferView":12,"componentType":5126,"count":110,"max":[0.056535251438617706,3.2689638137817383,0.15625],"min":[-0.637053370475769,0.90625,-0.2742839753627777],"type":"VEC3"},{"bufferView":13,"componentType":5126,"count":110,"max":[0.9607952237129211,0.7146149277687073,1],"min":[-0.9999022483825684,-1,-0.8510064482688904],"type":"VEC3"},{"bufferView":14,"componentType":5126,"count":110,"max":[0.5107598304748535,0.3990517854690552],"min":[0.0022222655825316906,0],"type":"VEC2"},{"bufferView":15,"componentType":5123,"count":150,"max":[109],"min":[0],"type":"SCALAR"},{"bufferView":16,"componentType":5126,"count":480,"max":[2.296875,2.234375,2.546875],"min":[-2.296875,-2.234375,-2.546875],"type":"VEC3"},{"bufferView":17,"componentType":5126,"count":480,"max":[0.9797282218933105,0.9851130247116089,0.9752466082572937],"min":[-0.9797282218933105,-0.9851130247116089,-0.9752466082572937],"type":"VEC3"},{"bufferView":18,"componentType":5126,"count":480,"max":[0.19891250133514404,0.1950874924659729],"min":[0,0],"type":"VEC2"},{"bufferView":19,"componentType":5123,"count":672,"max":[479],"min":[0],"type":"SCALAR"},{"bufferView":20,"componentType":5126,"count":480,"max":[2.234375,3.046875,2.234375],"min":[-2.234375,-3.046875,-2.234375],"type":"VEC3"},{"bufferView":21,"componentType":5126,"count":480,"max":[0.9895279407501221,0.9651262760162354,0.9895279407501221],"min":[-0.9895279407501221,-0.9651262760162354,-0.9895279407501221],"type":"VEC3"},{"bufferView":22,"componentType":5126,"count":480,"max":[0.19891250133514404,0.1950874924659729],"min":[0,0],"type":"VEC2"},{"bufferView":23,"componentType":5123,"count":672,"max":[479],"min":[0],"type":"SCALAR"},{"bufferView":24,"componentType":5126,"count":480,"max":[2.546875,3.359375,2.546875],"min":[-2.546875,-3.359375,-2.546875],"type":"VEC3"},{"bufferView":25,"componentType":5126,"count":480,"max":[0.9888195395469666,0.9672620296478271,0.9888195395469666],"min":[-0.9888195395469666,-0.9672620296478271,-0.9888195395469666],"type":"VEC3"},{"bufferView":26,"componentType":5126,"count":480,"max":[0.19891250133514404,0.1950874924659729],"min":[0,0],"type":"VEC2"},{"bufferView":27,"componentType":5123,"count":672,"max":[479],"min":[0],"type":"SCALAR"},{"bufferView":28,"componentType":5126,"count":480,"max":[2.296875,2.234375,2.546875],"min":[-2.296875,-2.234375,-2.546875],"type":"VEC3"},{"bufferView":29,"componentType":5126,"count":480,"max":[0.9797282218933105,0.9851130247116089,0.9752466082572937],"min":[-0.9797282218933105,-0.9851130247116089,-0.9752466082572937],"type":"VEC3"},{"bufferView":30,"componentType":5126,"count":480,"max":[0.19891250133514404,0.1950874924659729],"min":[0,0],"type":"VEC2"},{"bufferView":31,"componentType":5123,"count":672,"max":[479],"min":[0],"type":"SCALAR"},{"bufferView":32,"componentType":5126,"count":480,"max":[2.921875,2.796875,2.546875],"min":[-2.921875,-2.796875,-2.546875],"type":"VEC3"},{"bufferView":33,"componentType":5126,"count":480,"max":[0.9790840744972229,0.9823518395423889,0.9839884638786316],"min":[-0.9790840744972229,-0.9823518395423889,-0.9839884638786316],"type":"VEC3"},{"bufferView":34,"componentType":5126,"count":480,"max":[0.19891250133514404,0.1950874924659729],"min":[0,0],"type":"VEC2"},{"bufferView":35,"componentType":5123,"count":672,"max":[479],"min":[0],"type":"SCALAR"},{"bufferView":36,"componentType":5126,"count":480,"max":[2.546875,3.359375,2.546875],"min":[-2.546875,-3.359375,-2.546875],"type":"VEC3"},{"bufferView":37,"componentType":5126,"count":480,"max":[0.9888195395469666,0.9672620296478271,0.9888195395469666],"min":[-0.9888195395469666,-0.9672620296478271,-0.9888195395469666],"type":"VEC3"},{"bufferView":38,"componentType":5126,"count":480,"max":[0.19891250133514404,0.1950874924659729],"min":[0,0],"type":"VEC2"},{"bufferView":39,"componentType":5123,"count":672,"max":[479],"min":[0],"type":"SCALAR"},{"bufferView":40,"componentType":5126,"count":480,"max":[2.921875,2.796875,2.546875],"min":[-2.921875,-2.796875,-2.546875],"type":"VEC3"},{"bufferView":41,"componentType":5126,"count":480,"max":[0.9790840744972229,0.9823518395423889,0.9839884638786316],"min":[-0.9790840744972229,-0.9823518395423889,-0.9839884638786316],"type":"VEC3"},{"bufferView":42,"componentType":5126,"count":480,"max":[0.19891250133514404,0.1950874924659729],"min":[0,0],"type":"VEC2"},{"bufferView":43,"componentType":5123,"count":672,"max":[479],"min":[0],"type":"SCALAR"},{"bufferView":44,"componentType":5126,"count":480,"max":[2.984375,2.921875,2.921875],"min":[-2.984375,-2.921875,-2.921875],"type":"VEC3"},{"bufferView":45,"componentType":5126,"count":480,"max":[0.9799792766571045,0.9815597534179688,0.9807852506637573],"min":[-0.9799792766571045,-0.9815597534179688,-0.9807852506637573],"type":"VEC3"},{"bufferView":46,"componentType":5126,"count":480,"max":[0.19891250133514404,0.1950874924659729],"min":[0,0],"type":"VEC2"},{"bufferView":47,"componentType":5123,"count":672,"max":[479],"min":[0],"type":"SCALAR"},{"bufferView":48,"componentType":5126,"count":480,"max":[2.921875,2.796875,2.546875],"min":[-2.921875,-2.796875,-2.546875],"type":"VEC3"},{"bufferView":49,"componentType":5126,"count":480,"max":[0.9790840744972229,0.9823518395423889,0.9839884638786316],"min":[-0.9790840744972229,-0.9823518395423889,-0.9839884638786316],"type":"VEC3"},{"bufferView":50,"componentType":5126,"count":480,"max":[0.19891250133514404,0.1950874924659729],"min":[0,0],"type":"VEC2"},{"bufferView":51,"componentType":5123,"count":672,"max":[479],"min":[0],"type":"SCALAR"},{"bufferView":52,"componentType":5126,"count":480,"max":[2.546875,3.359375,2.546875],"min":[-2.546875,-3.359375,-2.546875],"type":"VEC3"},{"bufferView":53,"componentType":5126,"count":480,"max":[0.9888195395469666,0.9672620296478271,0.9888195395469666],"min":[-0.9888195395469666,-0.9672620296478271,-0.9888195395469666],"type":"VEC3"},{"bufferView":54,"componentType":5126,"count":480,"max":[0.19891250133514404,0.1950874924659729],"min":[0,0],"type":"VEC2"},{"bufferView":55,"componentType":5123,"count":672,"max":[479],"min":[0],"type":"SCALAR"}],"materials":[{"pbrMetallicRoughness":{"metallicFactor":0,"roughnessFactor":1,"baseColorTexture":{"index":0}},"alphaMode":"MASK","alphaCutoff":0.05,"doubleSided":true},{"pbrMetallicRoughness":{"metallicFactor":0,"roughnessFactor":1},"alphaMode":"MASK","alphaCutoff":0.05,"doubleSided":true}],"textures":[{"sampler":0,"source":0,"name":"texture"}],"samplers":[{"magFilter":9728,"minFilter":9728,"wrapS":33071,"wrapT":33071}],"images":[{"mimeType":"image/png","uri":"data:image/png;base64,"}],"meshes":[{"primitives":[{"mode":4,"attributes":{"POSITION":0,"NORMAL":1,"TEXCOORD_0":2},"indices":3,"material":0}]},{"primitives":[{"mode":4,"attributes":{"POSITION":4,"NORMAL":5,"TEXCOORD_0":6},"indices":7,"material":0}]},{"primitives":[{"mode":4,"attributes":{"POSITION":8,"NORMAL":9,"TEXCOORD_0":10},"indices":11,"material":0}]},{"primitives":[{"mode":4,"attributes":{"POSITION":12,"NORMAL":13,"TEXCOORD_0":14},"indices":15,"material":0}]},{"primitives":[{"mode":4,"attributes":{"POSITION":16,"NORMAL":17,"TEXCOORD_0":18},"indices":19,"material":1}]},{"primitives":[{"mode":4,"attributes":{"POSITION":20,"NORMAL":21,"TEXCOORD_0":22},"indices":23,"material":1}]},{"primitives":[{"mode":4,"attributes":{"POSITION":24,"NORMAL":25,"TEXCOORD_0":26},"indices":27,"material":1}]},{"primitives":[{"mode":4,"attributes":{"POSITION":28,"NORMAL":29,"TEXCOORD_0":30},"indices":31,"material":1}]},{"primitives":[{"mode":4,"attributes":{"POSITION":32,"NORMAL":33,"TEXCOORD_0":34},"indices":35,"material":1}]},{"primitives":[{"mode":4,"attributes":{"POSITION":36,"NORMAL":37,"TEXCOORD_0":38},"indices":39,"material":1}]},{"primitives":[{"mode":4,"attributes":{"POSITION":40,"NORMAL":41,"TEXCOORD_0":42},"indices":43,"material":1}]},{"primitives":[{"mode":4,"attributes":{"POSITION":44,"NORMAL":45,"TEXCOORD_0":46},"indices":47,"material":1}]},{"primitives":[{"mode":4,"attributes":{"POSITION":48,"NORMAL":49,"TEXCOORD_0":50},"indices":51,"material":1}]},{"primitives":[{"mode":4,"attributes":{"POSITION":52,"NORMAL":53,"TEXCOORD_0":54},"indices":55,"material":1}]}]}