{"asset":{"version":"2.0","generator":"Blockbench 5.0.4 glTF exporter"},"scenes":[{"nodes":[0,4,6],"name":"blockbench_export"}],"scene":0,"nodes":[{"name":"cylinder","mesh":0},{"rotation":[0,0,-0.3826834323650898,0.9238795325112867],"translation":[0,5.625,0],"name":"cylinder","mesh":1},{"rotation":[-0.44442827507414556,0.8423796795522186,-0.09165140396056053,0.2906544407783566],"translation":[0,4.6875,0],"name":"cylinder","mesh":2},{"rotation":[-0.2347795708193008,0.6787243540640207,0.2396325488352411,-0.6532901697293543],"translation":[-0.25,4.75,-0.5],"name":"cylinder","mesh":3},{"name":"branch","children":[1,2,3]},{"rotation":[-0.4548086088136879,0.32472349513564297,-0.2177581737600238,0.8001782044123353],"translation":[-0.8125,2.125,-1.3125],"name":"leafs","mesh":4},{"translation":[-0.375,7.5625,0],"name":"leaf_goup","children":[5]}],"bufferViews":[{"buffer":0,"byteOffset":0,"byteLength":1320,"target":34962,"byteStride":12},{"buffer":0,"byteOffset":1320,"byteLength":1320,"target":34962,"byteStride":12},{"buffer":0,"byteOffset":2640,"byteLength":880,"target":34962,"byteStride":8},{"buffer":0,"byteOffset":3520,"byteLength":300,"target":34963},{"buffer":0,"byteOffset":3820,"byteLength":1320,"target":34962,"byteStride":12},{"buffer":0,"byteOffset":5140,"byteLength":1320,"target":34962,"byteStride":12},{"buffer":0,"byteOffset":6460,"byteLength":880,"target":34962,"byteStride":8},{"buffer":0,"byteOffset":7340,"byteLength":300,"target":34963},{"buffer":0,"byteOffset":7640,"byteLength":1320,"target":34962,"byteStride":12},{"buffer":0,"byteOffset":8960,"byteLength":1320,"target":34962,"byteStride":12},{"buffer":0,"byteOffset":10280,"byteLength":880,"target":34962,"byteStride":8},{"buffer":0,"byteOffset":11160,"byteLength":300,"target":34963},{"buffer":0,"byteOffset":11460,"byteLength":1320,"target":34962,"byteStride":12},{"buffer":0,"byteOffset":12780,"byteLength":1320,"target":34962,"byteStride":12},{"buffer":0,"byteOffset":14100,"byteLength":880,"target":34962,"byteStride":8},{"buffer":0,"byteOffset":14980,"byteLength":300,"target":34963},{"buffer":0,"byteOffset":15280,"byteLength":57600,"target":34962,"byteStride":12},{"buffer":0,"byteOffset":72880,"byteLength":57600,"target":34962,"byteStride":12},{"buffer":0,"byteOffset":130480,"byteLength":38400,"target":34962,"byteStride":8},{"buffer":0,"byteOffset":168880,"byteLength":13440,"target":34963}],"buffers":[{"byteLength":182320,"uri":"data:application/octet-stream;base64,"}],"accessors":[{"bufferView":0,"componentType":5126,"count":110,"max":[0.962785005569458,9.8125,0.875],"min":[-0.962785005569458,0,-0.993033766746521],"type":"VEC3"},{"bufferView":1,"componentType":5126,"count":110,"max":[0.9700262546539307,1,0.9997026920318604],"min":[-0.9805471897125244,-1,-0.811601996421814],"type":"VEC3"},{"bufferView":2,"componentType":5126,"count":110,"max":[0.48790860176086426,0.7426930069923401],"min":[0.002403906313702464,0],"type":"VEC2"},{"bufferView":3,"componentType":5123,"count":150,"max":[109],"min":[0],"type":"SCALAR"},{"bufferView":4,"componentType":5126,"count":110,"max":[0.400285005569458,4.175213813781738,0.3125],"min":[-0.9808031320571899,0,-0.4305337369441986],"type":"VEC3"},{"bufferView":5,"componentType":5126,"count":110,"max":[0.9487937688827515,0.7464941740036011,1],"min":[-0.9998759627342224,-1,-0.8658682107925415],"type":"VEC3"},{"bufferView":6,"componentType":5126,"count":110,"max":[0.5,0.4479524493217468],"min":[0.0005135156097821891,0],"type":"VEC2"},{"bufferView":7,"componentType":5123,"count":150,"max":[109],"min":[0],"type":"SCALAR"},{"bufferView":8,"componentType":5126,"count":110,"max":[0.181535005569458,3.7689638137817383,0.28125],"min":[-0.7620531320571899,0.40625,-0.3992837369441986],"type":"VEC3"},{"bufferView":9,"componentType":5126,"count":110,"max":[0.9705143570899963,0.7061654329299927,1],"min":[-0.9999107718467712,-1,-0.8201595544815063],"type":"VEC3"},{"bufferView":10,"componentType":5126,"count":110,"max":[0.5,0.6606081128120422],"min":[0,0.0015440583229064941],"type":"VEC2"},{"bufferView":11,"componentType":5123,"count":150,"max":[109],"min":[0],"type":"SCALAR"},{"bufferView":12,"componentType":5126,"count":110,"max":[0.05653500184416771,3.2689638137817383,0.15625],"min":[-0.6370531320571899,0.90625,-0.2742837369441986],"type":"VEC3"},{"bufferView":13,"componentType":5126,"count":110,"max":[0.9607954621315002,0.7146150469779968,1],"min":[-0.9999023675918579,-1,-0.851003110408783],"type":"VEC3"},{"bufferView":14,"componentType":5126,"count":110,"max":[0.5107598304748535,0.3990517854690552],"min":[0.0022222655825316906,0],"type":"VEC2"},{"bufferView":15,"componentType":5123,"count":150,"max":[109],"min":[0],"type":"SCALAR"},{"bufferView":16,"componentType":5126,"count":4800,"max":[5.223808765411377,2.921875,6.112822532653809],"min":[-3.531228542327881,-5.628236293792725,-4.176300048828125],"type":"VEC3"},{"bufferView":17,"componentType":5126,"count":4800,"max":[0.9976452589035034,0.9982022047042847,0.999122679233551],"min":[-0.9976452589035034,-0.9982022047042847,-0.999122679233551],"type":"VEC3"},{"bufferView":18,"componentType":5126,"count":4800,"max":[1,1],"min":[0,0],"type":"VEC2"},{"bufferView":19,"componentType":5123,"count":6720,"max":[4799],"min":[0],"type":"SCALAR"}],"materials":[{"pbrMetallicRoughness":{"metallicFactor":0,"roughnessFactor":1,"baseColorTexture":{"index":0}},"alphaMode":"MASK","alphaCutoff":0.05,"doubleSided":true},{"pbrMetallicRoughness":{"metallicFactor":0,"roughnessFactor":1},"alphaMode":"MASK","alphaCutoff":0.05,"doubleSided":true}],"textures":[{"sampler":0,"source":0,"name":"texture.png"}],"samplers":[{"magFilter":9728,"minFilter":9728,"wrapS":33071,"wrapT":33071}],"images":[{"mimeType":"image/png","uri":"data:image/png;base64,"}],"meshes":[{"primitives":[{"mode":4,"attributes":{"POSITION":0,"NORMAL":1,"TEXCOORD_0":2},"indices":3,"material":0}]},{"primitives":[{"mode":4,"attributes":{"POSITION":4,"NORMAL":5,"TEXCOORD_0":6},"indices":7,"material":0}]},{"primitives":[{"mode":4,"attributes":{"POSITION":8,"NORMAL":9,"TEXCOORD_0":10},"indices":11,"material":0}]},{"primitives":[{"mode":4,"attributes":{"POSITION":12,"NORMAL":13,"TEXCOORD_0":14},"indices":15,"material":0}]},{"primitives":[{"mode":4,"attributes":{"POSITION":16,"NORMAL":17,"TEXCOORD_0":18},"indices":19,"material":1}]}]}